<svg width="15" height="17" viewBox="0 0 15 17" fill="none" xmlns="http://www.w3.org/2000/svg">
<path d="M5.94797 0.0334688C4.30692 0.133127 2.67252 0.471967 1.65932 0.930399C0.695951 1.36558 0.151149 1.89709 0.0348806 2.5183C-0.0116269 2.76412 -0.0116269 14.2382 0.0348806 14.484C0.200979 15.3809 1.27729 16.1018 3.1243 16.5569C6.44626 17.3708 11.0638 17.0286 13.13 15.8161C13.7812 15.4341 14.1599 14.9856 14.2529 14.484C14.2994 14.2382 14.2994 2.76412 14.2529 2.5183C14.0868 1.62137 13.0105 0.9005 11.1634 0.445392C9.6586 0.0766547 7.74183 -0.0728331 5.94797 0.0334688ZM8.24012 1.12639C9.94097 1.22937 11.3462 1.52835 12.3095 1.98678C12.9141 2.27579 13.2098 2.56148 13.1633 2.81395C13.1334 2.96676 12.8344 3.21923 12.4424 3.42519C11.5787 3.87033 10.4227 4.1527 8.77164 4.32212C8.21687 4.37859 6.07088 4.37859 5.51612 4.32212C3.8651 4.1527 2.70906 3.87033 1.84535 3.42519C1.45336 3.21923 1.15438 2.96676 1.12448 2.81395C1.02815 2.30237 2.37686 1.65459 4.22055 1.32903C5.36663 1.12639 6.93127 1.04667 8.24012 1.12639ZM1.28062 4.36198C1.49987 4.49154 2.19748 4.77059 2.61937 4.8935C5.24372 5.67416 9.04404 5.67416 11.6684 4.8935C12.0903 4.77059 12.7879 4.49154 13.0071 4.36198C13.0835 4.3188 13.1566 4.28226 13.1666 4.28226C13.2065 4.28226 13.1932 6.56112 13.1533 6.6641C13.0769 6.87007 12.7082 7.15908 12.2697 7.35839C10.2067 8.29851 6.21041 8.50447 3.40003 7.81682C2.1709 7.51785 1.28394 7.06606 1.13445 6.6641C1.09459 6.56112 1.0813 4.28226 1.12116 4.28226C1.13113 4.28226 1.20421 4.3188 1.28062 4.36198ZM1.37031 8.24868C1.61613 8.38488 2.08453 8.57091 2.52635 8.70711C5.15734 9.52099 9.13041 9.52099 11.7614 8.70711C12.2032 8.57091 12.6716 8.38488 12.9174 8.24868C13.0304 8.18888 13.14 8.13573 13.1599 8.13573C13.1799 8.13573 13.1898 8.54766 13.1832 9.32499L13.1732 10.5176L13.0802 10.6405C12.7214 11.1056 11.489 11.5906 10.0307 11.8364C9.04072 12.0058 8.55239 12.039 7.14388 12.039C5.73537 12.039 5.24704 12.0058 4.25709 11.8364C2.79875 11.5906 1.5663 11.1056 1.20753 10.6405L1.11452 10.5176L1.10455 9.32499C1.09791 8.54766 1.10787 8.13573 1.12781 8.13573C1.14774 8.13573 1.25736 8.18888 1.37031 8.24868ZM1.39356 12.1022C2.2772 12.5573 3.62592 12.8961 5.28358 13.0755C6.06756 13.1619 8.22019 13.1619 9.00417 13.0755C10.6618 12.8961 12.0105 12.5573 12.8942 12.1022C13.0304 12.0291 13.15 11.9693 13.1666 11.9626C13.1799 11.956 13.1898 12.4709 13.1898 13.1087C13.1898 14.474 13.1932 14.4441 12.851 14.6999C11.5554 15.6633 8.14379 16.1417 5.05104 15.7929C3.48972 15.6135 2.10446 15.1949 1.43675 14.6999C1.09459 14.4441 1.09791 14.474 1.09791 13.1087C1.09791 12.4709 1.10787 11.956 1.12448 11.9626C1.13777 11.9693 1.25736 12.0291 1.39356 12.1022Z" fill="white"/>
</svg>
