<svg width="19" height="14" viewBox="0 0 19 14" fill="none" xmlns="http://www.w3.org/2000/svg">
<path d="M17.2188 13.0625H1.78125C0.799187 13.0625 0 12.2633 0 11.2812V1.78125C0 0.799187 0.799187 0 1.78125 0H17.2188C18.2008 0 19 0.799187 19 1.78125V11.2812C19 12.2633 18.2008 13.0625 17.2188 13.0625ZM1.78125 11.875H17.2188C17.5459 11.875 17.8125 11.609 17.8125 11.2812V1.96947L9.88653 8.76316C9.77491 8.85875 9.63775 8.90625 9.5 8.90625C9.36225 8.90625 9.22509 8.85875 9.11347 8.76316L1.1875 1.96947V11.2812C1.1875 11.609 1.45409 11.875 1.78125 11.875ZM16.9005 1.1875H2.0995L9.5 7.53053L16.9005 1.1875Z" fill="white"/>
</svg>
