<svg width="15" height="18" viewBox="0 0 15 18" fill="none" xmlns="http://www.w3.org/2000/svg">
<g opacity="0.8">
<path d="M6.7671 0.0329933C6.33225 0.111168 5.5798 0.389669 5.21824 0.604654C4.31433 1.15189 3.59609 2.02159 3.26873 2.9597C3.03909 3.61931 3.00489 3.9369 3.00489 5.50042V6.95644L2.08632 6.97599L1.17264 6.99065L0.845277 7.15188C0.478827 7.33267 0.307818 7.50368 0.127036 7.89456L0 8.16329V12.4874V16.8115L0.161238 17.1389C0.337134 17.4955 0.547231 17.6959 0.938111 17.8766L1.17264 17.9841H7.5H13.8274L14.101 17.8571C14.4479 17.6959 14.7117 17.432 14.873 17.0851L15 16.8115V12.4825V8.15351L14.829 7.81638C14.6433 7.4597 14.3453 7.1812 14.0081 7.06394C13.8958 7.02485 13.4756 6.99065 12.9137 6.98088L12 6.95644L11.9853 5.33918C11.9658 3.83918 11.956 3.68772 11.8534 3.33104C11.6287 2.53462 11.2476 1.8799 10.671 1.30335C9.8355 0.467846 8.83388 0.037878 7.64658 0.00367737C7.30945 -0.00609589 6.91368 0.00367737 6.7671 0.0329933ZM8.32085 1.08348C9.49837 1.32778 10.5049 2.30498 10.8762 3.55579C10.9739 3.87827 10.9837 4.04928 11.0033 5.4369L11.0277 6.96622H7.5H3.97231L3.99674 5.4369C4.01629 4.04928 4.02606 3.87827 4.12378 3.55579C4.41694 2.55905 5.06678 1.78218 5.96091 1.34732C6.74267 0.971104 7.40717 0.897814 8.32085 1.08348ZM13.7834 8.08022C13.842 8.1242 13.9153 8.21214 13.9446 8.27078C14.0228 8.42713 14.0228 16.5379 13.9397 16.7138C13.8127 16.9972 14.145 16.9825 7.50489 16.9825C2.87296 16.9825 1.36808 16.9678 1.27036 16.9239C0.991857 16.7968 1.00163 16.9483 1.00163 12.4874C1.00163 9.55579 1.01629 8.34407 1.05537 8.27078C1.08469 8.21214 1.15798 8.1242 1.21661 8.08022C1.31433 8.00205 1.71498 7.99228 7.5 7.99228C13.285 7.99228 13.6857 8.00205 13.7834 8.08022Z" fill="white"/>
<path d="M7.01135 12.4874V14.0021H7.49995H7.98855V12.4874V10.9728H7.49995H7.01135V12.4874Z" fill="white"/>
</g>
</svg>
