<svg width="20" height="20" viewBox="0 0 20 20" fill="none" xmlns="http://www.w3.org/2000/svg">
<path d="M4.52465 0.0809008C4.41539 0.169145 4.41539 0.177549 4.40279 0.761641L4.39018 1.35414L4.17587 1.42557C4.05821 1.46759 3.86492 1.54743 3.74726 1.60206L3.53295 1.70711L3.18418 1.35414C2.80599 0.967544 2.64211 0.858289 2.50344 0.896108C2.38158 0.925523 0.881425 2.44248 0.881425 2.53493C0.881425 2.6694 0.999084 2.83328 1.35626 3.18205L1.70924 3.53083L1.60419 3.74513C1.54956 3.86279 1.46972 4.05609 1.4277 4.17375L1.35626 4.38805L0.763766 4.40066C-0.064048 4.41747 -0.00942068 4.32082 0.00738773 5.72012C0.019994 6.69081 0.0283982 6.80846 0.0956319 6.8757C0.158663 6.93873 0.267918 6.95554 0.759564 6.97235L1.35206 6.99336L1.46552 7.2875C1.52855 7.44718 1.61259 7.63628 1.64621 7.70771L1.71344 7.83378L1.29743 8.25819C1.01169 8.55234 0.881425 8.71202 0.881425 8.77925C0.881425 8.85069 1.09573 9.09441 1.66722 9.67009C2.33115 10.334 2.47402 10.4601 2.57907 10.4601C2.67572 10.4601 2.78077 10.3802 3.11274 10.0567L3.52455 9.64908L3.74726 9.75414C3.86912 9.81297 4.07082 9.89701 4.19268 9.93903L4.41119 10.0189V10.5946C4.41119 11.4056 4.30194 11.3425 5.68863 11.3425H6.80219L6.88623 11.2333C6.96607 11.1324 6.97447 11.0652 6.97447 10.5609V10.0063L7.13415 9.95164C7.21819 9.92642 7.41149 9.84658 7.55856 9.78355L7.8275 9.66169L8.2393 10.0609C8.8234 10.624 8.73935 10.645 9.69323 9.69111C10.6471 8.73723 10.6261 8.82127 10.063 8.23718L9.66382 7.82537L9.78568 7.55644C9.84871 7.40936 9.92855 7.21607 9.95376 7.12782L10.0084 6.97235H10.5631C11.0673 6.97235 11.1346 6.96394 11.2354 6.8841L11.3447 6.80006V5.6865C11.3447 4.29981 11.4077 4.40906 10.5925 4.40906H10.0084L9.97897 4.29561C9.96637 4.23258 9.88653 4.03508 9.80249 3.85439L9.65121 3.52242L10.0546 3.11062C10.3824 2.77865 10.4622 2.6736 10.4622 2.57695C10.4622 2.4719 10.3362 2.32902 9.67222 1.66509C9.09653 1.09361 8.85281 0.8793 8.78138 0.8793C8.71414 0.8793 8.55446 1.00957 8.26031 1.29531L7.8359 1.71132L7.70984 1.64408C7.64261 1.61047 7.45351 1.52642 7.28963 1.46339L6.99548 1.34993L6.97447 0.757439C6.95766 0.265793 6.94085 0.156538 6.87782 0.0935067C6.81059 0.0262739 6.69293 0.0178693 5.72225 0.00526337C4.67592 -0.00734352 4.6339 -0.00314122 4.52465 0.0809008ZM6.38618 1.14403C6.38618 1.79956 6.37777 1.78695 6.8274 1.92562C6.99128 1.98025 7.29383 2.10631 7.50814 2.20716C7.97037 2.43408 7.94095 2.44248 8.44521 1.94663L8.80239 1.59366L9.28563 2.0769L9.76467 2.55594L9.37807 2.95094C9.11334 3.22407 8.99148 3.37955 8.99148 3.44678C8.99148 3.50141 9.06292 3.6863 9.15536 3.86279C9.24361 4.03508 9.36967 4.33343 9.4327 4.52672C9.49993 4.73683 9.57977 4.89651 9.6344 4.93433C9.70163 4.98055 9.84871 4.99736 10.2395 4.99736H10.7564V5.69071V6.38405H10.2185C9.85291 6.38405 9.65541 6.40086 9.60919 6.43448C9.57137 6.46389 9.49153 6.64038 9.4327 6.82527C9.36967 7.00596 9.24781 7.30431 9.15536 7.485C9.06712 7.66569 8.99148 7.85479 8.99148 7.90941C8.99148 7.96824 9.12595 8.13633 9.37807 8.38845L9.76887 8.77925L9.27302 9.2709L8.78138 9.76674L8.39058 9.37595C8.13845 9.12382 7.97037 8.98935 7.91154 8.98935C7.85691 8.98935 7.66782 9.06499 7.48713 9.15324C7.30644 9.24568 7.00809 9.36754 6.8274 9.43058C6.64251 9.4894 6.46602 9.56924 6.4408 9.60706C6.40299 9.65329 6.38618 9.85079 6.38618 10.2164V10.7542H5.69283H4.99948V10.2374C4.99948 9.84658 4.98268 9.69951 4.93645 9.63228C4.89863 9.57765 4.73895 9.49781 4.52885 9.43058C4.33555 9.36754 4.0372 9.24148 3.86492 9.15324C3.68843 9.06079 3.50354 8.98935 3.44891 8.98935C3.38168 8.98935 3.2262 9.11122 2.95306 9.37595L2.55806 9.76254L2.07902 9.2835L1.59578 8.80026L1.94876 8.44308C2.44461 7.93883 2.4362 7.96824 2.20929 7.50601C2.10844 7.29171 1.98238 6.98495 1.92775 6.82527C1.78908 6.37565 1.80169 6.38405 1.14616 6.38405H0.587278V5.69491V5.00576L1.15876 4.98895C1.81849 4.97215 1.78908 4.99316 1.93195 4.52252C1.98238 4.35864 2.10844 4.06029 2.20929 3.85859C2.32275 3.62747 2.38158 3.45939 2.36897 3.41317C2.35216 3.37115 2.17147 3.16524 1.96977 2.95934L1.59578 2.58115L2.09163 2.0853L2.58328 1.59366L2.94045 1.95504C3.13795 2.15254 3.33965 2.33323 3.39008 2.35424C3.46572 2.38365 3.57077 2.35004 3.87332 2.19876C4.08763 2.09791 4.38598 1.97605 4.53725 1.92983C4.98688 1.79536 4.97427 1.81637 4.99108 1.15664L5.00789 0.585153H5.69703H6.38618V1.14403Z" fill="white"/>
<path d="M5.04152 3.21564C3.91956 3.5182 3.15058 4.50989 3.15058 5.65707C3.15058 6.11509 3.2094 6.37983 3.4069 6.79163C3.70105 7.40514 4.24312 7.87998 4.90285 8.09849C5.34827 8.24556 5.97439 8.25396 6.4072 8.1195C7.21821 7.86317 7.86533 7.21605 8.12166 6.40504C8.26453 5.94281 8.24772 5.34191 8.08384 4.87127C8.01241 4.67377 7.88634 4.40064 7.7981 4.27037C7.47033 3.77452 6.85683 3.34591 6.29795 3.21144C5.96178 3.1316 5.34407 3.13581 5.04152 3.21564ZM6.25593 3.81655C6.6089 3.9258 6.83162 4.06867 7.09215 4.34181C8.17629 5.48478 7.53757 7.35051 5.97439 7.60684C5.3903 7.70349 4.78099 7.51019 4.33137 7.07738C3.89855 6.66557 3.71786 6.20334 3.74727 5.56882C3.75988 5.23265 3.78089 5.14441 3.91956 4.85867C4.16328 4.34181 4.5919 3.97202 5.14657 3.79553C5.4071 3.71149 5.95758 3.7241 6.25593 3.81655Z" fill="white"/>
<path d="M12.0087 2.25328C11.9121 2.35833 11.9121 2.56843 12.0087 2.66088C12.0507 2.6987 12.2524 2.78694 12.4541 2.85418C13.8324 3.32061 15.1729 4.2913 16.0259 5.44267L16.299 5.81246L16.1688 5.97214C15.5049 6.81256 16.0889 8.06478 17.1437 8.06478C17.5513 8.06478 17.795 7.96813 18.0723 7.6908C18.3665 7.39245 18.4631 7.14032 18.4379 6.7075C18.4169 6.22846 18.1816 5.85868 17.753 5.63597C17.5765 5.54352 17.484 5.52251 17.1773 5.51831L16.8117 5.50991L16.4923 5.08549C15.5721 3.86268 14.3199 2.92982 12.8491 2.36673C12.3449 2.17344 12.1054 2.14402 12.0087 2.25328ZM17.5513 6.19905C17.774 6.36713 17.837 6.4974 17.837 6.78314C17.837 6.98904 17.816 7.07729 17.7488 7.16553C17.4546 7.56053 16.9042 7.58154 16.6142 7.20335C16.3495 6.85458 16.4797 6.32511 16.8705 6.14862C17.0428 6.06458 17.4126 6.094 17.5513 6.19905Z" fill="white"/>
<path d="M13.1136 8.7624C13.0338 8.86325 13.0254 8.93048 13.0254 9.43473V9.98941L12.8699 10.044C12.7817 10.0692 12.5884 10.1491 12.4413 10.2121L12.1724 10.334L11.7606 9.93478C11.1765 9.3717 11.2605 9.35069 10.3066 10.3046C9.35277 11.2584 9.37378 11.1744 9.93686 11.7585L10.3361 12.1703L10.2142 12.4392C10.1512 12.5863 10.0713 12.7796 10.0461 12.8636L9.99149 13.0233H9.43681C8.93256 13.0233 8.86532 13.0317 8.76447 13.1116L8.65522 13.1956V14.3092C8.65522 15.6959 8.59219 15.5866 9.40319 15.5866H9.97888L10.0587 15.8051C10.1007 15.927 10.1848 16.1287 10.2436 16.2505L10.3487 16.4733L9.94106 16.8851C9.6175 17.217 9.53766 17.3221 9.53766 17.4187C9.53766 17.5238 9.66372 17.6666 10.3277 18.3306C10.9033 18.9021 11.1471 19.1164 11.2185 19.1164C11.2857 19.1164 11.4454 18.9861 11.7396 18.7004L12.164 18.2844L12.29 18.3516C12.3615 18.3852 12.5506 18.4692 12.7102 18.5323L13.0044 18.6457L13.0254 19.2424C13.0548 20.0576 12.9498 19.9988 14.307 19.9988C15.6769 19.9988 15.5803 20.0534 15.5971 19.234L15.6097 18.6415L15.824 18.5701C15.9417 18.5281 16.135 18.4482 16.2526 18.3936L16.4669 18.2886L16.8157 18.6415C17.1939 19.0281 17.3578 19.1374 17.4964 19.0996C17.6309 19.0659 19.1184 17.5532 19.1184 17.4481C19.1184 17.3347 18.9336 17.0952 18.5848 16.7506L18.2906 16.4648L18.3957 16.2505C18.4503 16.1329 18.5302 15.9396 18.5722 15.8219L18.6436 15.6076L19.2361 15.595C20.0639 15.5782 20.0093 15.6749 19.9925 14.2756C19.9799 13.3049 19.9715 13.1872 19.9042 13.12C19.8412 13.0569 19.732 13.0401 19.2403 13.0233L18.6478 13.0023L18.5344 12.7082C18.4713 12.5443 18.3873 12.3552 18.3537 12.288L18.2864 12.1619L18.7024 11.7375C18.9882 11.4433 19.1184 11.2837 19.1184 11.2164C19.1184 11.145 18.9041 10.9013 18.3327 10.3256C17.6687 9.66165 17.5259 9.53558 17.4208 9.53558C17.3242 9.53558 17.2191 9.61542 16.8871 9.93899L16.4753 10.3466L16.2022 10.2163C16.0551 10.1449 15.8576 10.065 15.761 10.0356L15.5887 9.98521V9.40112C15.5887 8.59011 15.6979 8.65314 14.3112 8.65314H13.1977L13.1136 8.7624ZM15.0004 9.75829C15.0004 10.1491 15.0172 10.2962 15.0634 10.3634C15.1012 10.418 15.2609 10.4979 15.471 10.5651C15.6643 10.6281 15.9627 10.7542 16.135 10.8424C16.3114 10.9349 16.4963 11.0063 16.551 11.0063C16.6182 11.0063 16.7737 10.8845 17.0468 10.6197L17.4418 10.2331L17.9209 10.7122L18.4041 11.1954L18.0511 11.5526C17.5553 12.0568 17.5637 12.0274 17.7906 12.4897C17.8914 12.704 18.0175 13.0065 18.0721 13.1704C18.2108 13.62 18.1982 13.6116 18.8537 13.6116H19.4126V14.3008V14.9899L18.8411 15.0067C18.1814 15.0235 18.2108 15.0025 18.0679 15.4732C18.0175 15.637 17.8914 15.9354 17.7906 16.1413C17.6435 16.4312 17.6141 16.5279 17.6435 16.6035C17.6645 16.6581 17.8452 16.8598 18.0427 17.0573L18.4041 17.4145L17.9124 17.9062L17.4166 18.402L17.0384 18.028C16.8325 17.8263 16.6266 17.6456 16.5846 17.6288C16.5384 17.6162 16.3829 17.6709 16.1812 17.7717C16.0005 17.8599 15.6853 17.9902 15.4836 18.0616C15.2819 18.1289 15.0928 18.2087 15.0676 18.2339C15.0382 18.2633 15.0172 18.5071 15.0088 18.8474L14.992 19.4105L14.3154 19.4021L13.6347 19.3895L13.6221 18.839C13.6095 18.1961 13.6179 18.2087 13.1725 18.0658C13.0128 18.0154 12.706 17.8894 12.4917 17.7843C12.0295 17.5616 12.0589 17.5532 11.5547 18.049L11.1975 18.402L10.7142 17.9188L10.2352 17.4397L10.6218 17.0447C10.8865 16.7716 11.0084 16.6161 11.0084 16.5489C11.0084 16.4943 10.937 16.3094 10.8445 16.1329C10.7563 15.9606 10.6302 15.6622 10.5672 15.4689C10.4999 15.2588 10.4201 15.0992 10.3655 15.0613C10.2982 15.0151 10.1512 14.9983 9.76037 14.9983H9.24351V14.305V13.6116H9.77298C10.0629 13.6116 10.3361 13.5906 10.3781 13.5696C10.4285 13.5402 10.4915 13.4141 10.5462 13.2208C10.5966 13.0569 10.7227 12.7502 10.8235 12.5485C10.9244 12.3426 11.0084 12.1367 11.0084 12.0863C11.0084 12.0274 10.8697 11.8551 10.6218 11.6072L10.231 11.2164L10.7269 10.7248L11.2185 10.2289L11.6093 10.6197C11.8614 10.8719 12.0295 11.0063 12.0883 11.0063C12.143 11.0063 12.3321 10.9307 12.5127 10.8424C12.6934 10.75 12.9918 10.6281 13.1725 10.5651C13.3574 10.5063 13.5339 10.4264 13.5633 10.3886C13.5969 10.3424 13.6137 10.1449 13.6137 9.7793V9.24144H14.307H15.0004V9.75829Z" fill="white"/>
<path d="M13.8786 11.809C13.1811 11.9267 12.5087 12.3931 12.1305 13.0318C11.2691 14.4857 12.0633 16.3641 13.7189 16.7843C14.0383 16.8641 14.6182 16.8641 14.9375 16.7843C15.7401 16.5742 16.3873 15.9985 16.6856 15.2295C16.7907 14.9606 16.8243 14.8093 16.8411 14.4857C16.8789 13.6831 16.6478 13.0696 16.0973 12.5192C15.5006 11.9225 14.7106 11.6703 13.8786 11.809ZM14.6686 12.3931C15.0174 12.4603 15.3998 12.6578 15.6687 12.9184C16.1015 13.3302 16.2822 13.7924 16.2528 14.4269C16.2402 14.7631 16.2192 14.8513 16.0805 15.1371C15.8788 15.5699 15.572 15.8766 15.1392 16.0783C14.8535 16.217 14.7652 16.238 14.4291 16.2506C13.8198 16.28 13.4248 16.1372 12.9878 15.7296C12.5171 15.2967 12.286 14.6286 12.3869 14.0193C12.576 12.9226 13.6013 12.1914 14.6686 12.3931Z" fill="white"/>
<path d="M2.35226 12.0022C2.08753 12.0988 1.71774 12.477 1.6253 12.7459C1.40258 13.393 1.67152 14.057 2.28082 14.3763C2.41949 14.452 2.53715 14.473 2.82289 14.4772L3.18848 14.4856L3.51624 14.9184C4.06251 15.6454 4.8273 16.3555 5.60889 16.8598C6.27702 17.2884 7.47882 17.8137 7.80238 17.8137C8.02509 17.8137 8.15536 17.4859 7.99148 17.3346C7.94946 17.2968 7.74776 17.2086 7.54605 17.1413C6.10894 16.6581 4.67182 15.5781 3.8314 14.3595L3.70533 14.1746L3.8272 14.0318C4.51214 13.204 3.90704 11.9223 2.8355 11.9349C2.67582 11.9349 2.45731 11.9685 2.35226 12.0022ZM3.24731 12.6577C3.6339 12.9518 3.61709 13.4981 3.21789 13.7964C3.12965 13.8637 3.0414 13.8847 2.8355 13.8847C2.54976 13.8847 2.41949 13.8217 2.25981 13.6074C2.02029 13.288 2.16737 12.7459 2.54135 12.5778C2.73885 12.4854 3.07502 12.5232 3.24731 12.6577Z" fill="white"/>
</svg>
