<svg width="16" height="15" viewBox="0 0 16 15" fill="none" xmlns="http://www.w3.org/2000/svg">
<path d="M0.502401 0.038747C0.349259 0.0887528 0.0867286 0.357534 0.0398483 0.516927C-0.0132828 0.701323 -0.0132828 6.29571 0.0398483 6.48011C0.089854 6.652 0.349259 6.91141 0.521153 6.96141C0.618039 6.98954 1.35562 6.99892 3.50899 6.99892C6.75311 6.99892 6.55622 7.01454 6.79374 6.74889C6.86875 6.66763 6.94689 6.54261 6.96564 6.47386C7.01877 6.29571 7.01877 0.701323 6.96564 0.523177C6.94689 0.454419 6.86875 0.329405 6.79374 0.248146C6.55622 -0.0175091 6.75624 -0.00188229 3.49024 0.00124278C1.48689 0.00436833 0.577409 0.0137445 0.502401 0.038747Z" fill="white"/>
<path d="M8.50331 0.038747C8.35017 0.0887528 8.08764 0.357534 8.04076 0.516927C7.98763 0.701323 7.98763 6.29571 8.04076 6.48011C8.09077 6.652 8.35017 6.91141 8.52206 6.96141C8.61895 6.98954 9.35653 6.99892 11.5099 6.99892C14.754 6.99892 14.5571 7.01454 14.7947 6.74889C14.8697 6.66763 14.9478 6.54261 14.9665 6.47386C15.0197 6.29571 15.0197 0.701323 14.9665 0.523177C14.9478 0.454419 14.8697 0.329405 14.7947 0.248146C14.5571 -0.0175091 14.7571 -0.00188229 11.4912 0.00124278C9.4878 0.00436833 8.57832 0.0137445 8.50331 0.038747Z" fill="white"/>
<path d="M0.502401 8.03966C0.349259 8.08966 0.0867286 8.35845 0.0398483 8.51784C-0.0132828 8.70223 -0.0132828 14.2966 0.0398483 14.481C0.089854 14.6529 0.349259 14.9123 0.521153 14.9623C0.618039 14.9905 1.35562 14.9998 3.50899 14.9998C6.75311 14.9998 6.55622 15.0155 6.79374 14.7498C6.86875 14.6685 6.94689 14.5435 6.96564 14.4748C7.01877 14.2966 7.01877 8.70223 6.96564 8.52409C6.94689 8.45533 6.86875 8.33032 6.79374 8.24906C6.55622 7.9834 6.75624 7.99903 3.49024 8.00215C1.48689 8.00528 0.577409 8.01466 0.502401 8.03966Z" fill="white"/>
<path d="M8.50331 8.03966C8.35017 8.08966 8.08764 8.35845 8.04076 8.51784C7.98763 8.70223 7.98763 14.2966 8.04076 14.481C8.09077 14.6529 8.35017 14.9123 8.52206 14.9623C8.61895 14.9905 9.35653 14.9998 11.5099 14.9998C14.754 14.9998 14.5571 15.0155 14.7947 14.7498C14.8697 14.6685 14.9478 14.5435 14.9665 14.4748C15.0197 14.2966 15.0197 8.70223 14.9665 8.52409C14.9478 8.45533 14.8697 8.33032 14.7947 8.24906C14.5571 7.9834 14.7571 7.99903 11.4912 8.00215C9.4878 8.00528 8.57832 8.01466 8.50331 8.03966Z" fill="white"/>
</svg>
