<svg width="17" height="17" viewBox="0 0 17 17" fill="none" xmlns="http://www.w3.org/2000/svg">
<path d="M7.44884 0.0206365C7.28257 0.0638656 7.0764 0.183579 6.94671 0.313269C6.73056 0.526094 6.67735 0.702338 6.57759 1.49045C6.53104 1.88285 6.4745 2.21871 6.45788 2.24199C6.44125 2.26526 6.37474 2.29852 6.30824 2.31847C6.24173 2.34175 6.03223 2.42488 5.84268 2.50802L5.50017 2.66098L5.37713 2.56122C4.80184 2.10565 4.36622 1.78309 4.23985 1.7199C4.037 1.61682 3.71112 1.59354 3.45506 1.67002C3.26552 1.72323 3.23226 1.75316 2.48738 2.49471C1.74582 3.2396 1.71589 3.27285 1.66269 3.4624C1.5862 3.72178 1.60948 4.04434 1.71257 4.24719C1.7558 4.33032 1.9653 4.61963 2.17812 4.89564C2.70686 5.57069 2.67028 5.4942 2.55389 5.72698C2.49736 5.83672 2.4109 6.03956 2.36102 6.17591C2.31114 6.31225 2.25128 6.44194 2.23133 6.46189C2.21137 6.48184 1.87219 6.53837 1.47979 6.58825C0.688353 6.68801 0.518758 6.74122 0.305934 6.95404C0.236102 7.02055 0.142991 7.15357 0.0897851 7.25L0 7.42292V8.48704V9.55116L0.0864597 9.73738C0.13634 9.84047 0.229451 9.98013 0.299284 10.05C0.518758 10.2694 0.698329 10.326 1.45319 10.4191C1.82231 10.4623 2.15817 10.5122 2.19475 10.5288C2.23465 10.5454 2.28786 10.6286 2.32444 10.735C2.35769 10.8348 2.44748 11.0443 2.52063 11.2039C2.61042 11.4067 2.64367 11.5098 2.6204 11.5364C2.60377 11.5597 2.40757 11.8124 2.1881 12.0951C1.96862 12.3777 1.7558 12.677 1.71257 12.7601C1.60948 12.963 1.5862 13.2856 1.66269 13.5449C1.71589 13.7345 1.74582 13.7677 2.48738 14.5126C3.23226 15.2542 3.26552 15.2841 3.45506 15.3373C3.71112 15.4138 4.037 15.3905 4.23985 15.2874C4.36622 15.2242 4.80184 14.9017 5.37713 14.4461L5.50017 14.3464L5.84268 14.4993C6.03223 14.5825 6.24173 14.6656 6.30824 14.6889C6.37474 14.7088 6.44125 14.7421 6.45788 14.7653C6.4745 14.7886 6.53104 15.1245 6.57759 15.5169C6.67735 16.3083 6.73056 16.4812 6.95003 16.7007C7.01987 16.7705 7.15953 16.8637 7.26262 16.9135L7.44884 17H8.49633H9.54383L9.73005 16.9135C9.83313 16.8637 9.9728 16.7705 10.0426 16.7007C10.2654 16.4779 10.3186 16.3017 10.4151 15.5136C10.4616 15.1245 10.5182 14.7886 10.5381 14.7687C10.5581 14.7487 10.6878 14.6889 10.8241 14.639C10.9604 14.5891 11.1633 14.5026 11.273 14.4461C11.5058 14.3297 11.4293 14.2931 12.1044 14.8219C12.3804 15.0347 12.6697 15.2442 12.7528 15.2874C12.9557 15.3905 13.2782 15.4138 13.5376 15.3373C13.7271 15.2841 13.7604 15.2542 14.5053 14.5126C15.2468 13.7677 15.2768 13.7345 15.33 13.5449C15.4065 13.2856 15.3832 12.963 15.2801 12.7601C15.2202 12.6438 14.9077 12.2214 14.3723 11.5397C14.3523 11.5098 14.3889 11.3901 14.492 11.1573C14.5751 10.9678 14.6583 10.7583 14.6815 10.6918C14.7015 10.6253 14.7347 10.5587 14.758 10.5421C14.7813 10.5255 15.1172 10.469 15.5095 10.4224C16.301 10.3226 16.4739 10.2694 16.6934 10.05C16.7632 9.98013 16.8563 9.84047 16.9062 9.73738L16.9927 9.55116V8.50367V7.45617L16.9062 7.26995C16.8563 7.16687 16.7632 7.0272 16.6934 6.95737C16.4739 6.73789 16.2977 6.68469 15.4996 6.57828C15.1039 6.52839 14.768 6.47186 14.7514 6.45524C14.7347 6.43861 14.6815 6.31225 14.6316 6.17591C14.5818 6.03956 14.4953 5.83672 14.4388 5.72698C14.3224 5.4942 14.2858 5.57069 14.8145 4.89564C15.0274 4.61963 15.2369 4.33032 15.2801 4.24719C15.3832 4.04434 15.4065 3.72178 15.33 3.4624C15.2768 3.27285 15.2468 3.2396 14.5053 2.49471C13.7604 1.75316 13.7271 1.72323 13.5376 1.67002C13.2782 1.59354 12.9557 1.61682 12.7528 1.7199C12.6697 1.76313 12.3804 1.97263 12.1044 2.18546C11.4293 2.71419 11.5058 2.67761 11.273 2.56122C11.1633 2.50469 10.9604 2.41823 10.8241 2.36835C10.6878 2.31847 10.5581 2.25861 10.5381 2.23866C10.5182 2.21871 10.4616 1.88285 10.4151 1.49045C10.3153 0.699013 10.2621 0.529418 10.0426 0.306619C9.9728 0.236786 9.83313 0.143676 9.73005 0.0937955L9.54383 0.00733539L8.54621 0.000683872C7.99753 -0.00264188 7.50537 0.00733539 7.44884 0.0206365ZM9.42411 0.732266C9.60368 0.822052 9.62696 0.895209 9.74335 1.80304C9.82648 2.46146 9.86639 2.67761 9.91294 2.74079C9.9595 2.80065 10.0925 2.86383 10.3785 2.96692C10.598 3.0434 10.9405 3.18639 11.14 3.28283C11.4559 3.4358 11.5124 3.45242 11.6022 3.42582C11.6588 3.40919 12.0113 3.15647 12.387 2.86383C13.3015 2.1522 13.1552 2.1389 14.0065 2.99352C14.8611 3.84482 14.8511 3.69185 14.1262 4.62628C13.8302 5.0087 13.5775 5.36784 13.5642 5.41772C13.5509 5.4942 13.5842 5.59396 13.7172 5.86997C13.8136 6.06284 13.9499 6.3854 14.0231 6.58493C14.1794 7.02388 14.196 7.06045 14.2891 7.11034C14.329 7.13361 14.7447 7.20012 15.2103 7.25998C16.1048 7.37304 16.1779 7.39632 16.2677 7.57589C16.3276 7.68895 16.3276 9.31838 16.2677 9.43145C16.1779 9.61102 16.1048 9.6343 15.2069 9.74736C14.7414 9.81054 14.329 9.87705 14.2891 9.897C14.196 9.94688 14.1761 9.98346 14.0198 10.4257C13.9499 10.6286 13.8103 10.9511 13.7172 11.1473C13.5609 11.4633 13.5443 11.5131 13.5742 11.6096C13.5908 11.6661 13.8435 12.0186 14.1362 12.3944C14.8478 13.3088 14.8611 13.1625 14.0065 14.0138C13.1552 14.8684 13.3082 14.8585 12.3737 14.1335C11.9913 13.8376 11.6322 13.5848 11.5823 13.5715C11.5058 13.5582 11.406 13.5915 11.13 13.7245C10.9372 13.8209 10.6113 13.9573 10.4084 14.0304C10.2089 14.1036 10.0094 14.1834 9.96947 14.21C9.86639 14.2765 9.83978 14.3996 9.73005 15.2841C9.62696 16.1055 9.60368 16.1853 9.42411 16.2751C9.31105 16.3349 7.68162 16.3349 7.56855 16.2751C7.38898 16.182 7.3657 16.1121 7.25264 15.2076C7.16618 14.5392 7.1296 14.333 7.07972 14.2665C7.03317 14.2067 6.90348 14.1435 6.6175 14.0404C6.3947 13.9639 6.05551 13.8209 5.85931 13.7278C5.57998 13.5915 5.48354 13.5582 5.40706 13.5749C5.35385 13.5848 5.02132 13.8209 4.66883 14.0936C4.31301 14.3696 3.98047 14.619 3.93059 14.6456C3.7344 14.7454 3.67121 14.7022 2.97621 14.0072C2.13489 13.1625 2.14487 13.3122 2.86647 12.3811C3.16243 11.9986 3.41516 11.6428 3.42514 11.5929C3.44176 11.5231 3.40518 11.4134 3.27549 11.1473C3.18238 10.9511 3.04272 10.6253 2.97289 10.4224C2.89973 10.2162 2.81659 10.0167 2.78999 9.97681C2.72348 9.87372 2.60044 9.84712 1.71589 9.73738C0.894526 9.6343 0.814717 9.61102 0.724932 9.43145C0.665075 9.31838 0.665075 7.68895 0.724932 7.57589C0.814717 7.39632 0.894526 7.37304 1.71589 7.26995C2.60044 7.16022 2.72348 7.13361 2.78999 7.03053C2.81659 6.99062 2.8964 6.7911 2.96956 6.59158C3.04272 6.38873 3.17906 6.06284 3.27549 5.86665C3.43179 5.54741 3.44841 5.4942 3.41849 5.40109C3.40186 5.34124 3.14913 4.98875 2.8565 4.61298C2.14487 3.6985 2.13157 3.84482 2.98619 2.99352C3.83748 2.1389 3.69117 2.1522 4.60564 2.86383C4.98141 3.15647 5.3339 3.40919 5.39043 3.42582C5.48354 3.45575 5.54007 3.43912 5.87594 3.27285C6.08211 3.17309 6.408 3.03675 6.60087 2.96692C6.79374 2.90041 6.98329 2.82393 7.02319 2.80065C7.12628 2.73082 7.15288 2.60778 7.26262 1.72323C7.3657 0.901861 7.38898 0.822052 7.56855 0.732266C7.62508 0.702338 7.88779 0.689037 8.49633 0.689037C9.10488 0.689037 9.36758 0.702338 9.42411 0.732266Z" fill="white"/>
<path d="M8.09057 4.97878C6.86351 5.13175 5.81934 5.89326 5.28728 7.01724C4.64881 8.37066 4.94809 9.99012 6.02884 11.0376C7.09628 12.0685 8.66254 12.3412 9.97606 11.716C10.7675 11.3435 11.3361 10.7749 11.7053 9.99012C12.5665 8.16782 11.7119 6.003 9.81644 5.21488C9.32761 5.01203 8.606 4.91227 8.09057 4.97878ZM9.06158 5.72366C9.79649 5.87996 10.4316 6.31226 10.854 6.94075C11.1765 7.42293 11.3228 7.91841 11.3228 8.51698C11.3195 9.47801 10.8673 10.316 10.0559 10.8614C9.74661 11.0709 9.33426 11.2371 8.97512 11.3003C8.84543 11.3236 8.58605 11.3336 8.34995 11.3236C7.86445 11.3036 7.47205 11.1873 7.04973 10.9379C6.73382 10.7516 6.30485 10.3393 6.10865 10.0334C5.94571 9.78395 5.78276 9.38158 5.71625 9.06899C5.6564 8.78966 5.6564 8.2177 5.71625 7.93836C5.95236 6.83101 6.80698 5.96974 7.91433 5.72699C8.18036 5.66713 8.79223 5.66713 9.06158 5.72366Z" fill="white"/>
</svg>
