<svg width="12" height="12" viewBox="0 0 12 12" fill="none" xmlns="http://www.w3.org/2000/svg">
<path d="M4.36104 0.00599947C3.87535 0.052927 3.50697 0.12801 3.13625 0.259405C1.46565 0.8413 0.292471 2.27727 0.0296802 4.06284C-0.0149005 4.35848 -0.00786144 5.07881 0.0414119 5.38618C0.20331 6.41154 0.656156 7.31019 1.36475 8.0094C2.27044 8.90805 3.41312 9.37732 4.68953 9.37732C5.57411 9.37732 6.48214 9.11688 7.18839 8.65934C7.2799 8.60068 7.35968 8.5561 7.36202 8.56079C7.36437 8.56314 7.38783 8.61945 7.4113 8.68515C7.43476 8.7485 7.48403 8.8447 7.51923 8.89632C7.55442 8.94794 8.22548 9.63073 9.01151 10.4144C10.5648 11.9653 10.5202 11.9255 10.8487 11.9865C11.1396 12.0404 11.4799 11.9302 11.7004 11.7072C11.9233 11.4867 12.0336 11.1465 11.9796 10.8555C11.9186 10.527 11.9585 10.5716 10.4076 9.01833C9.62391 8.2323 8.94112 7.56125 8.8895 7.52605C8.83788 7.49086 8.74402 7.44158 8.67833 7.41812C8.61497 7.39466 8.55866 7.37119 8.55397 7.36885C8.54928 7.3665 8.59855 7.27969 8.66425 7.17645C9.12883 6.435 9.3705 5.58562 9.3705 4.69635C9.3705 3.42698 8.90592 2.29134 8.019 1.38565C7.32214 0.677056 6.42114 0.217171 5.40517 0.0505804C5.18461 0.015385 4.54406 -0.0127716 4.36104 0.00599947ZM5.1893 1.22376C5.74304 1.30588 6.31086 1.53582 6.74259 1.85258C7.96973 2.75358 8.47654 4.3139 8.01666 5.77568C7.75856 6.59455 7.12973 7.35008 6.35075 7.77476C5.52014 8.22761 4.46194 8.31677 3.56328 8.01175C1.28732 7.2351 0.444984 4.45703 1.90676 2.55179C2.56608 1.69537 3.56563 1.20029 4.66138 1.19091C4.82562 1.19091 5.0626 1.20498 5.1893 1.22376Z" fill="white"/>
</svg>
