<svg width="9" height="11" viewBox="0 0 9 11" fill="none" xmlns="http://www.w3.org/2000/svg">
<path d="M2.83814 0.0132525C2.63372 0.0648939 2.41855 0.243488 2.32817 0.441447C2.28514 0.533972 2.28084 0.583462 2.27438 0.998746L2.26793 1.45491L1.30395 1.46137L0.339974 1.46782L0.236691 1.53238C0.165683 1.57756 0.114042 1.63351 0.0667037 1.71527L0 1.83362V2.41459V2.99555L0.0667037 3.1139C0.114042 3.19567 0.165683 3.25161 0.236691 3.2968C0.331367 3.35489 0.359339 3.36135 0.563754 3.3678L0.785382 3.37641V6.83425C0.785382 9.23128 0.791838 10.333 0.809052 10.4212C0.852086 10.6622 0.972583 10.8214 1.20067 10.9419L1.31256 11H4.33574H7.35893L7.46651 10.9462C7.59562 10.8838 7.73763 10.7461 7.79788 10.6278C7.82155 10.5804 7.85167 10.4814 7.86458 10.4061C7.87749 10.3157 7.8861 9.09141 7.8861 6.82134V3.37641L8.10773 3.3678C8.31214 3.36135 8.34012 3.35489 8.43479 3.2968C8.5058 3.25161 8.55744 3.19567 8.60478 3.1139L8.67148 2.99555V2.41459V1.83362L8.60478 1.71527C8.55744 1.63351 8.5058 1.57756 8.43479 1.53238L8.33151 1.46782L7.36753 1.46137L6.40356 1.45491L6.3971 0.998746C6.39065 0.583462 6.38634 0.533972 6.34331 0.441447C6.27876 0.299433 6.11738 0.13375 5.97321 0.0648939L5.85271 0.00464579L4.37878 0.000341939C3.56757 -0.00180998 2.87471 0.00464579 2.83814 0.0132525ZM5.75589 0.639407C5.79677 0.68029 5.79892 0.710414 5.79892 1.06975V1.45707H4.33574H2.87256V1.06975C2.87256 0.710414 2.87471 0.68029 2.9156 0.639407C2.95863 0.596372 2.98661 0.596372 4.33574 0.596372C5.68488 0.596372 5.71285 0.596372 5.75589 0.639407ZM8.05824 2.41459V2.76962H4.33574H0.613244V2.41459V2.05955H4.33574H8.05824V2.41459ZM7.2621 6.86437C7.2621 9.55188 7.25564 10.3631 7.23628 10.3825C7.1997 10.419 1.47179 10.419 1.43521 10.3825C1.41584 10.3631 1.40938 9.55188 1.40938 6.86437V3.37211H4.33574H7.2621V6.86437Z" fill="#F30004" fill-opacity="0.7"/>
<path d="M2.425 4.3813C2.38627 4.40712 2.33678 4.45661 2.31311 4.49534C2.27008 4.5642 2.27008 4.60938 2.27008 6.94401C2.27008 9.20548 2.27223 9.32598 2.30881 9.39484C2.425 9.61216 2.74561 9.59065 2.84244 9.36041C2.86826 9.30231 2.87256 8.88272 2.87256 6.93971C2.87256 4.74279 2.87041 4.58356 2.83383 4.51471C2.75637 4.35978 2.56271 4.29738 2.425 4.3813Z" fill="#F30004" fill-opacity="0.7"/>
<path d="M4.20669 4.37697C4.16581 4.39848 4.10987 4.44797 4.08405 4.48886L4.03456 4.56202V6.93753C4.03456 9.5153 4.0281 9.36683 4.1529 9.48303C4.20024 9.52821 4.23252 9.53682 4.3358 9.53682C4.43908 9.53682 4.47136 9.52821 4.5187 9.48303C4.6435 9.36683 4.63704 9.5153 4.63704 6.93968C4.63704 4.62442 4.63489 4.56417 4.59401 4.49746C4.51009 4.3576 4.34225 4.30596 4.20669 4.37697Z" fill="#F30004" fill-opacity="0.7"/>
<path d="M5.97323 4.37705C5.93234 4.39857 5.87855 4.44376 5.85488 4.47603C5.8097 4.53628 5.8097 4.54919 5.80324 6.91825C5.79894 9.1539 5.80109 9.30452 5.83552 9.37553C5.94525 9.5907 6.2508 9.60361 6.36269 9.39489C6.39927 9.32604 6.40142 9.20554 6.40142 6.94407C6.40142 4.6245 6.39927 4.56426 6.35839 4.49755C6.27447 4.35769 6.10663 4.30605 5.97323 4.37705Z" fill="#F30004" fill-opacity="0.7"/>
</svg>
