<svg width="13" height="13" viewBox="0 0 13 13" fill="none" xmlns="http://www.w3.org/2000/svg">
<path d="M11.3906 0.0248212C11.2052 0.0629237 10.9994 0.15437 10.8521 0.266138C10.7708 0.324562 10.5346 0.548097 10.3237 0.758932L9.94271 1.1425L10.9029 2.10014L11.8605 3.06033L12.267 2.6539C12.4931 2.43037 12.7166 2.18397 12.7699 2.10777C13.1306 1.56417 13.062 0.865619 12.5997 0.403307C12.2771 0.080705 11.825 -0.0615448 11.3906 0.0248212Z" fill="#0695FF" fill-opacity="0.7"/>
<path d="M7.19416 3.89074C5.45414 5.6333 5.02739 6.07529 5.00707 6.14641C4.99437 6.19468 4.90039 6.65699 4.79878 7.17518C4.67431 7.80007 4.61843 8.13791 4.62859 8.18617C4.65145 8.27508 4.72765 8.35129 4.81656 8.37415C4.91309 8.39701 6.85124 8.0109 6.95031 7.94994C6.98841 7.92454 7.98162 6.94403 9.15518 5.76793L11.2889 3.63164L10.3364 2.67907C9.81309 2.1558 9.37871 1.72651 9.37109 1.72651C9.36347 1.72651 8.38551 2.70194 7.19416 3.89074Z" fill="#0695FF" fill-opacity="0.7"/>
<path d="M1.32652 2.19666C0.838807 2.28556 0.386656 2.63103 0.165661 3.08572C-0.0121514 3.4515 -0.00453084 3.19494 0.00308968 7.67073L0.0107102 11.6969L0.0665941 11.862C0.15042 12.1059 0.29521 12.3345 0.480643 12.5225C0.671156 12.713 0.859129 12.8298 1.10807 12.9162L1.2808 12.9797H5.40096H9.52113L9.71926 12.9162C10.2298 12.7562 10.6312 12.3294 10.7861 11.7833C10.8293 11.6309 10.8319 11.4658 10.8319 9.2558V6.8909L10.7557 6.76897C10.6439 6.58862 10.4559 6.49209 10.2527 6.50987C10.0749 6.52512 9.93518 6.60894 9.83611 6.76135L9.76498 6.86804L9.75228 9.205C9.73958 11.3438 9.73704 11.5521 9.6964 11.6232C9.63543 11.735 9.49064 11.8544 9.37888 11.8874C9.31029 11.9077 8.13419 11.9128 5.35524 11.9077L1.42813 11.9001L1.32906 11.8315C1.27572 11.7934 1.20205 11.7198 1.16649 11.6664L1.10299 11.5724L1.09537 7.61485C1.09028 3.75632 1.09028 3.65472 1.13855 3.56073C1.16649 3.50993 1.21983 3.43626 1.26048 3.39816C1.42051 3.24321 1.30874 3.25083 3.77271 3.25083C5.48225 3.25083 6.05125 3.24321 6.12999 3.22035C6.27478 3.17716 6.43227 3.01205 6.47292 2.86218C6.5415 2.62087 6.43989 2.36685 6.22652 2.24238L6.10713 2.17125L3.80827 2.16617C1.99967 2.16363 1.47131 2.16871 1.32652 2.19666Z" fill="#0695FF" fill-opacity="0.7"/>
</svg>
