<svg width="13" height="18" viewBox="0 0 13 18" fill="none" xmlns="http://www.w3.org/2000/svg">
<path d="M0.823305 0.0245031C0.482222 0.0989926 0.23131 0.291097 0.094092 0.592976L0 0.789001V9.00245C0 17.1806 0.0039205 17.2159 0.0823305 17.3923C0.184264 17.6197 0.325402 17.7687 0.568473 17.8941L0.764498 18H6.11598H11.4675L11.6635 17.8941C11.9066 17.7687 12.0477 17.6197 12.1496 17.3923C12.228 17.2159 12.232 17.1806 12.232 9.00245C12.232 0.824285 12.228 0.789001 12.1496 0.612578C12.0477 0.385189 11.9066 0.23621 11.6635 0.110754L11.4675 0.00490063L6.21399 0.000980125C3.32458 -0.00294038 0.897795 0.00490063 0.823305 0.0245031ZM11.3381 0.573373C11.4165 0.596896 11.5263 0.667465 11.5812 0.734114L11.6831 0.855649V9.00245V17.1493L11.5812 17.2708C11.5263 17.3374 11.4165 17.408 11.3381 17.4315C11.1381 17.4864 1.09382 17.4864 0.893874 17.4315C0.815464 17.408 0.70569 17.3374 0.650803 17.2708L0.54887 17.1493V9.00245V0.855649L0.650803 0.734114C0.70569 0.667465 0.807623 0.596896 0.874272 0.577294C1.05461 0.526327 11.1499 0.522407 11.3381 0.573373Z" fill="white"/>
<path d="M1.2624 1.30259L1.17615 1.36139V3.53335V5.70531L1.2624 5.76412C1.34081 5.819 1.86616 5.82684 6.11598 5.82684C10.3658 5.82684 10.8912 5.819 10.9696 5.76412L11.0558 5.70531V3.53335V1.36139L10.9696 1.30259C10.8912 1.2477 10.3658 1.23986 6.11598 1.23986C1.86616 1.23986 1.34081 1.2477 1.2624 1.30259ZM10.5069 3.53335V5.27797H6.11598H1.72502V3.53335V1.78873H6.11598H10.5069V3.53335Z" fill="white"/>
<path d="M1.46627 7.1951C1.39962 7.2343 1.30945 7.31663 1.2624 7.37544C1.18007 7.4813 1.17615 7.5205 1.17615 8.38301C1.17615 9.37882 1.19183 9.44939 1.42314 9.59053C1.53684 9.66109 1.62701 9.66894 2.45815 9.66894H3.36379L3.48925 9.567C3.71271 9.3749 3.72448 9.32393 3.72448 8.38693C3.72448 7.43425 3.70879 7.35976 3.4422 7.19902C3.32458 7.12845 3.24225 7.12061 2.45031 7.12061C1.67405 7.12061 1.57604 7.12845 1.46627 7.1951ZM3.17561 8.39477V9.12007H2.45031H1.72502V8.39477V7.66948H2.45031H3.17561V8.39477Z" fill="white"/>
<path d="M5.15164 7.1755C5.08499 7.20686 4.98698 7.28919 4.93601 7.35976C4.84584 7.48914 4.84192 7.51658 4.83016 8.35557C4.81839 9.32393 4.838 9.41018 5.09283 9.57876C5.22221 9.66501 5.25749 9.66894 6.11608 9.66894C6.97467 9.66894 7.00995 9.66501 7.13933 9.57876C7.38632 9.4141 7.40985 9.31609 7.40985 8.41438C7.40985 7.65772 7.40593 7.59891 7.32359 7.43425C7.17462 7.14021 7.10013 7.12061 6.11608 7.12061C5.49664 7.12453 5.24181 7.13629 5.15164 7.1755ZM6.86098 8.39477V9.12007H6.11608H5.37119V8.39477V7.66948H6.11608H6.86098V8.39477Z" fill="white"/>
<path d="M8.78976 7.19906C8.52317 7.36372 8.50749 7.43429 8.50749 8.38697C8.50749 9.32397 8.51925 9.37494 8.74272 9.56705L8.86817 9.66898H9.77381C11.1029 9.66898 11.0558 9.71602 11.0558 8.37521V7.46958L10.9029 7.30492L10.7461 7.14026L9.83262 7.12849C8.97403 7.12065 8.9113 7.12457 8.78976 7.19906ZM10.5069 8.39482V9.12011H9.78165H9.05636V8.39482V7.66952H9.78165H10.5069V8.39482Z" fill="white"/>
<path d="M1.48979 10.7158C1.4153 10.755 1.31337 10.8451 1.26632 10.9196C1.18007 11.049 1.17615 11.0843 1.17615 11.939C1.17615 12.7466 1.18399 12.8368 1.25456 12.9505C1.40746 13.2053 1.45451 13.217 2.39151 13.2288C3.20697 13.2406 3.24225 13.2367 3.40692 13.1504C3.70487 12.9975 3.72448 12.9191 3.72448 11.9507C3.72448 11.0216 3.70487 10.9196 3.48533 10.7628C3.35595 10.6726 3.32851 10.6687 2.48952 10.657C1.72502 10.6491 1.61133 10.657 1.48979 10.7158ZM3.17561 11.9429V12.6878H2.45031H1.72502V11.9429V11.198H2.45031H3.17561V11.9429Z" fill="white"/>
<path d="M5.14768 10.7314C5.03007 10.7902 4.9595 10.8608 4.90069 10.9823C4.82228 11.143 4.81836 11.2058 4.83012 11.9977C4.84188 12.919 4.8458 12.9386 5.1124 13.1347C5.21433 13.2131 5.27314 13.217 6.11604 13.217C6.95895 13.217 7.01776 13.2131 7.11969 13.1347C7.38629 12.9386 7.39021 12.919 7.40197 11.9977C7.41373 11.2058 7.40981 11.143 7.3314 10.9823C7.26867 10.8568 7.20202 10.7902 7.08049 10.7314C6.93151 10.6569 6.84134 10.6491 6.11212 10.6491C5.38291 10.6491 5.29666 10.6569 5.14768 10.7314ZM6.86094 11.9428V12.6877H6.11604H5.37115V11.9428V11.1979H6.11604H6.86094V11.9428Z" fill="white"/>
<path d="M8.82113 10.7236C8.74664 10.7628 8.64863 10.8412 8.6055 10.9C8.52709 11.0058 8.52709 11.0646 8.51533 13.6835L8.50749 16.3573L8.59374 16.4945C8.76232 16.7454 8.85641 16.765 9.79341 16.765C10.6912 16.765 10.7461 16.7533 10.9382 16.5494L11.0362 16.4436L11.048 13.7502L11.0558 11.0568L10.9696 10.9196C10.801 10.6726 10.7069 10.6491 9.78165 10.6491C9.05244 10.6491 8.94266 10.6569 8.82113 10.7236ZM10.5069 13.7071V16.2162H9.78165H9.05636V13.7071V11.1979H9.78165H10.5069V13.7071Z" fill="white"/>
<path d="M1.62701 14.2128C1.43882 14.2598 1.33297 14.3304 1.25456 14.4637C1.18399 14.5774 1.17615 14.6676 1.17615 15.4987V16.4044L1.27808 16.5298C1.47019 16.7533 1.52115 16.765 2.43855 16.765C3.37555 16.765 3.46964 16.7454 3.63822 16.4906C3.7284 16.3573 3.7284 16.3416 3.71663 15.4517C3.70487 14.6205 3.69703 14.5421 3.62646 14.4441C3.45396 14.2128 3.38339 14.1971 2.52872 14.1893C2.09747 14.1854 1.69366 14.1971 1.62701 14.2128ZM3.16776 15.4791L3.17561 16.2162H2.45031H1.72502V15.4713V14.7264L2.44247 14.7342L3.156 14.746L3.16776 15.4791Z" fill="white"/>
<path d="M5.2966 14.2167C5.11625 14.2598 4.97512 14.3735 4.89279 14.5343C4.83398 14.648 4.82222 14.7852 4.82222 15.4713C4.82222 16.2319 4.82614 16.2867 4.91239 16.4514C5.06137 16.7454 5.13586 16.765 6.11598 16.765C7.09611 16.765 7.1706 16.7454 7.3235 16.4514C7.40583 16.2867 7.40975 16.2319 7.40975 15.483C7.40975 14.2206 7.36662 14.1775 6.09638 14.1814C5.73177 14.1854 5.37109 14.201 5.2966 14.2167ZM6.85304 15.4791L6.86088 16.2162H6.11598H5.37109V15.4987C5.37109 15.1027 5.38285 14.7656 5.39853 14.7499C5.41421 14.7381 5.74353 14.7303 6.13166 14.7342L6.84127 14.746L6.85304 15.4791Z" fill="white"/>
</svg>
