<svg width="19" height="18" viewBox="0 0 19 18" fill="none" xmlns="http://www.w3.org/2000/svg">
<path d="M5.69613 0.0361873C5.13356 0.145186 4.64482 0.644473 4.53582 1.22815C4.48659 1.4813 4.48659 12.012 4.53582 12.2722C4.64834 12.8664 5.13356 13.3517 5.73129 13.4642C5.98445 13.5134 16.5187 13.5134 16.7719 13.4642C17.3696 13.3517 17.8548 12.8664 17.9673 12.2722C18.0166 12.012 18.0166 1.48482 17.9673 1.22463C17.8548 0.630408 17.3696 0.145186 16.7719 0.0326706C16.5398 -0.0130385 5.92468 -0.00952278 5.69613 0.0361873ZM14.5743 3.08113C14.736 3.16552 14.838 3.271 14.9294 3.44329C14.9927 3.5558 14.9962 3.68238 15.0068 5.15563L15.0173 6.74843H14.4512H13.8887V5.85182C13.8887 5.35957 13.8781 4.95521 13.864 4.95521C13.8465 4.95521 12.5912 6.19991 11.0687 7.72239L8.29805 10.4931L7.90425 10.0958L7.50693 9.70195L10.2776 6.93126C11.8001 5.40879 13.0448 4.15354 13.0448 4.13596C13.0448 4.1219 12.6404 4.11135 12.1482 4.11135H11.2516V3.54877V2.98268L12.8444 2.99323C14.395 3.00378 14.4372 3.00729 14.5743 3.08113Z" fill="#0088FF"/>
<path d="M0.439513 9.08317C0.232063 9.1781 0.168773 9.24491 0.0738381 9.45587C0.0035161 9.61058 0 9.66684 0 13.4994C0 17.3319 0.0035161 17.3882 0.0738381 17.5429C0.168773 17.7539 0.232063 17.8207 0.439513 17.9156L0.615318 18H4.50061H8.3859L8.56171 17.9156C8.76916 17.8207 8.83245 17.7539 8.92738 17.5429C8.99419 17.3952 9.00122 17.3144 9.00122 16.1962V15.0113H8.24526H7.4893V15.7497V16.4881H4.50061H1.51192V13.4994V10.5107H2.25031H2.98869V9.75474V8.99878H1.80376C0.629382 8.99878 0.611802 8.99878 0.439513 9.08317Z" fill="#0088FF"/>
</svg>
