<svg width="13" height="16" viewBox="0 0 13 16" fill="none" xmlns="http://www.w3.org/2000/svg">
<path d="M1.67638 0.0250136C0.92889 0.172009 0.350289 0.672421 0.0844446 1.40427L0 1.63259V7.99721V14.3618L0.0844446 14.5901C0.312758 15.2219 0.791277 15.6942 1.40741 15.9037L1.65762 15.9882L6.16133 15.9975C10.1584 16.0038 10.6932 16.0007 10.909 15.9569C11.6315 15.8099 12.1944 15.3157 12.4571 14.5901L12.5416 14.3618V8.99803V3.63424L12.4728 3.41531C12.332 2.96806 12.2538 2.87736 10.9622 1.58567C9.69236 0.315878 9.61417 0.250199 9.17318 0.0906919L8.94487 0.0062479L5.37943 -7.63569e-06C3.41844 -7.63569e-06 1.75144 0.00937567 1.67638 0.0250136ZM7.99096 2.09234C7.99096 3.15572 8.00973 3.29646 8.19738 3.64987C8.38503 4.00642 8.69466 4.28165 9.10125 4.45053L9.32018 4.54123L10.3679 4.55687L11.4157 4.57251V9.3577V14.1429L11.3343 14.3149C11.2343 14.5307 11.0873 14.6777 10.884 14.7715L10.7276 14.8466H6.27079C1.93284 14.8466 1.81087 14.8435 1.67951 14.784C1.4512 14.6808 1.33548 14.5682 1.22914 14.3524L1.12593 14.1429V7.99721V1.85152L1.19786 1.69827C1.31045 1.45432 1.40741 1.34798 1.61383 1.24477L1.80774 1.14781H4.90091H7.99096V2.09234ZM10.1552 2.38946C10.7026 2.93679 11.1498 3.39341 11.1498 3.40592C11.1498 3.44345 9.67985 3.43407 9.54849 3.39967C9.40775 3.35901 9.25763 3.24016 9.18569 3.10568C9.13878 3.02436 9.13252 2.893 9.12314 2.20181C9.11689 1.76082 9.12314 1.39802 9.13878 1.39802C9.15129 1.39802 9.61104 1.84526 10.1552 2.38946Z" fill="white"/>
<path d="M3.19007 6.33647C2.69904 6.55853 2.74596 7.25911 3.26201 7.40297C3.42151 7.44676 9.11996 7.44676 9.27947 7.40297C9.79552 7.25911 9.84243 6.55853 9.3514 6.33647C9.23255 6.28017 9.06992 6.27705 6.27074 6.27705C3.47156 6.27705 3.30892 6.28017 3.19007 6.33647Z" fill="white"/>
<path d="M3.14318 9.21378C3.08375 9.24506 2.99305 9.32951 2.94301 9.40144C2.76474 9.64852 2.83668 10.0113 3.09001 10.1802L3.21824 10.2647L6.20508 10.274C8.28804 10.2803 9.22944 10.274 9.31076 10.249C9.57035 10.174 9.75488 9.8393 9.68294 9.57658C9.64228 9.4202 9.51718 9.26695 9.38895 9.2044C9.28887 9.16062 8.99488 9.15436 6.2645 9.15436C3.39026 9.15436 3.24639 9.15749 3.14318 9.21378Z" fill="white"/>
<path d="M3.19012 12.0443C3.05876 12.1006 2.90238 12.2883 2.86172 12.4384C2.7804 12.7418 2.97431 13.0546 3.28707 13.1265C3.44658 13.164 9.09498 13.164 9.25449 13.1265C9.56725 13.0546 9.76116 12.7418 9.67984 12.4384C9.63918 12.2852 9.4828 12.1006 9.34519 12.0443C9.19819 11.9818 3.33086 11.9818 3.19012 12.0443Z" fill="white"/>
</svg>
